<?xml version="1.0" encoding="UTF-8"?>
<svg id="Capa_2" xmlns="http://www.w3.org/2000/svg" viewBox="0 0 39.35 22.38">
  <defs>
    <style>
      .cls-1 {
        fill: #fff;
      }
    </style>
  </defs>
  <g id="Capa_1-2" data-name="Capa_1">
    <g>
      <path class="cls-1" d="M19.63,0c4.77.11,8.74,1.51,12.24,4.26,3,2.35,5.14,5.32,6.38,8.91.72,2.07,1.18,4.21,1.09,6.43-.04,1.12-.67,1.82-1.68,1.82-1.01,0-1.76-.76-1.77-1.84-.01-4.4-1.64-8.15-4.66-11.29-2.13-2.21-4.75-3.63-7.73-4.39-2.08-.53-4.18-.57-6.29-.27-.95.13-1.89.42-2.81.69-1.35.39-2.43-.47-2.31-1.87.07-.82.62-1.22,1.3-1.41,1.09-.32,2.2-.6,3.33-.78,1.07-.17,2.16-.2,2.92-.26Z"/>
      <path class="cls-1" d="M0,18.8c.17-3.44,1.16-6.63,2.98-9.56.08-.13.16-.26.24-.39.55-.94,1.67-1.26,2.55-.73.78.47.97,1.54.46,2.47-.53.96-1.1,1.91-1.54,2.91-.84,1.95-1.29,4-1.25,6.14.02.99-.78,1.76-1.72,1.75-1,0-1.7-.71-1.71-1.74,0-.29,0-.57,0-.86Z"/>
      <path class="cls-1" d="M24.23,16.63c-.39-1.99-1.86-3.33-3.99-3.69-.35-.06-.74-.22-1-.46-1.01-.92-1.96-1.89-2.96-2.83-1.59-1.5-3.2-2.97-4.79-4.47-1.38-1.3-2.75-2.62-4.13-3.92-.69-.65-1.67-.72-2.35-.19-.71.56-.89,1.52-.33,2.34.8,1.15,1.65,2.27,2.5,3.39,2.37,3.12,4.73,6.24,7.12,9.34.46.59.7,1.22.75,1.96.14,2.23,2.24,4.21,4.58,4.12.02.05.03.1.05.16.77-.24,1.6-.36,2.29-.74,1.81-1.01,2.64-2.98,2.25-5.01ZM19.74,18.77c-.69.02-1.25-.52-1.24-1.2,0-.7.48-1.16,1.19-1.17.61,0,1.18.55,1.18,1.15,0,.63-.54,1.21-1.13,1.22Z"/>
    </g>
  </g>
</svg>