<?xml version="1.0" encoding="UTF-8"?>
<svg id="Capa_2" xmlns="http://www.w3.org/2000/svg" viewBox="0 0 36.26 32.11">
  <defs>
    <style>
      .cls-1 {
        fill: #fff;
      }
    </style>
  </defs>
  <g id="Capa_1-2" data-name="Capa_1">
    <path class="cls-1" d="M6.84,6.67c-.35.25-.65.51-.99.7C3.41,8.75.32,7.16.02,4.38-.21,2.25,1.24.35,3.37.04c2.63-.38,4.8,1.84,4.47,4.39-.03.26-.1.52-.17.78-.03.11-.01.17.07.24,1.21.99,2.42,1.98,3.63,2.98.84.69,1.69,1.38,2.53,2.08.11.09.18.09.29.01.99-.65,2.02-.72,3.09-.2.09.04.14.04.22-.03,1.13-1.15,2.27-2.3,3.4-3.45.09-.09.04-.15,0-.23-.59-1.06-.64-2.15-.12-3.24.62-1.32,2.03-2.09,3.49-1.92,1.5.17,2.74,1.3,2.99,2.78.24,1.44-.23,2.64-1.43,3.47-1.14.79-2.36.82-3.59.2-.05-.03-.1-.05-.18-.09-.16.17-.32.33-.48.5-.99,1.01-1.99,2.02-2.98,3.03-.09.09-.09.15-.04.25.23.43.36.89.35,1.37,0,.13.04.17.16.19,1.42.23,2.84.47,4.27.71,1.76.29,3.52.59,5.27.89.13.02.17-.02.22-.13,1-2.29,3.79-3.08,5.82-1.65,1.29.91,1.9,2.54,1.53,4.08-.37,1.53-1.64,2.69-3.19,2.93-2.2.33-4.24-1.26-4.45-3.47,0-.04-.02-.08-.01-.12,0-.11-.04-.14-.14-.16-1.41-.23-2.81-.47-4.22-.71-1.85-.31-3.7-.62-5.55-.93-.11-.02-.16,0-.22.09-.42.61-.99,1.02-1.71,1.21-.09.02-.13.06-.14.16-.24,1.44-.48,2.89-.71,4.33-.24,1.42-.47,2.85-.71,4.27-.03.15.02.2.14.26,1.08.53,1.8,1.37,2.07,2.55.34,1.5-.09,2.79-1.27,3.78-1.51,1.27-3.75,1.14-5.1-.29-1.01-1.06-1.32-2.33-.9-3.73.43-1.39,1.4-2.26,2.83-2.59.19-.05.39-.06.59-.08.1,0,.14-.04.16-.15.28-1.71.56-3.42.84-5.12.18-1.1.36-2.19.54-3.29.02-.1,0-.14-.1-.17-.58-.2-1.06-.55-1.43-1.04-.06-.07-.1-.1-.19-.06-1.35.52-2.7,1.05-4.05,1.56-.13.05-.1.13-.1.22.06,1.01-.33,1.8-1.2,2.33-1.53.94-3.56-.1-3.71-1.89-.09-1.02.44-1.97,1.34-2.42.9-.46,1.97-.32,2.75.35.09.08.16.09.26.05,1.39-.54,2.79-1.08,4.18-1.61.1-.04.14-.08.13-.19-.02-.4.04-.78.18-1.16.04-.1.03-.16-.06-.23-2.04-1.67-4.08-3.35-6.12-5.02-.02-.02-.05-.04-.05-.04ZM3.94,6.37c1.33,0,2.42-1.1,2.42-2.43,0-1.33-1.1-2.43-2.43-2.43-1.33,0-2.44,1.12-2.43,2.44,0,1.33,1.11,2.42,2.44,2.42ZM32.37,18.5c1.3,0,2.38-1.06,2.38-2.37,0-1.29-1.07-2.38-2.37-2.38-1.3,0-2.38,1.07-2.39,2.37,0,1.29,1.07,2.38,2.37,2.38ZM15.9,28.34c0-1.25-1.01-2.27-2.25-2.28-1.25,0-2.28,1.01-2.29,2.26-.01,1.23,1.02,2.27,2.26,2.28,1.23.01,2.27-1.02,2.28-2.26ZM25.79,4.87c0-1.06-.87-1.94-1.93-1.94-1.06,0-1.95.89-1.94,1.95,0,1.06.88,1.93,1.94,1.93,1.07,0,1.93-.87,1.93-1.93ZM15.88,14.48c.83,0,1.49-.66,1.5-1.48,0-.83-.67-1.51-1.49-1.51-.82,0-1.51.69-1.5,1.51,0,.82.68,1.49,1.5,1.49ZM6.69,15.76c-.52-.01-.97.42-.98.94-.01.52.42.97.95.98.52,0,.97-.43.97-.95,0-.52-.42-.96-.94-.97Z"/>
  </g>
</svg>