<?xml version="1.0" encoding="UTF-8"?>
<svg id="Capa_2" xmlns="http://www.w3.org/2000/svg" viewBox="0 0 24 24">
  <defs>
    <style>
      .cls-1 {
        fill: #fff;
      }
    </style>
  </defs>
  <g id="Capa_1-2" data-name="Capa_1">
    <g>
      <path class="cls-1" d="M0,23.15c.14-.17.27-.36.43-.52.96-.96,1.92-1.92,2.89-2.88-.19-.3-.39-.58-.54-.88-1.02-2.03-.66-4.28.94-5.91.84-.85,1.69-1.69,2.53-2.54.36-.36.72-.35,1.08,0,.37.37.74.74,1.12,1.12.48-.48.94-.94,1.41-1.4.1-.1.23-.2.36-.25.28-.11.59.02.76.27.16.26.14.58-.09.82-.42.44-.86.87-1.29,1.29-.06.06-.14.11-.26.2.75.72,1.46,1.41,2.2,2.12.2-.2.39-.41.6-.61.29-.29.57-.58.86-.86.28-.27.69-.27.95-.02.26.26.27.66,0,.95-.42.44-.86.87-1.29,1.29-.06.06-.14.1-.23.16.4.4.75.75,1.11,1.1.43.43.43.76,0,1.18-.91.91-1.81,1.84-2.75,2.72-1.72,1.59-4.41,1.7-6.29.32-.07-.05-.14-.1-.22-.16-.06.06-.12.11-.17.16-.91.91-1.82,1.82-2.74,2.73-.16.16-.34.28-.52.43h-.33C.27,23.9.09,23.73,0,23.48c0-.11,0-.22,0-.33ZM6.79,11.83c-.75.74-1.54,1.47-2.28,2.25-.75.79-1.05,1.76-.95,2.84.09,1.05.61,1.88,1.38,2.58,1.31,1.18,3.3,1.35,4.67.25.94-.75,1.76-1.66,2.62-2.48-1.83-1.83-3.64-3.64-5.44-5.43Z"/>
      <path class="cls-1" d="M0,23.48c.09.25.27.42.52.52H0v-.52Z"/>
      <path class="cls-1" d="M20.67,4.26c.53.67.89,1.39,1.03,2.21.31,1.76-.17,3.29-1.42,4.57-.84.85-1.69,1.69-2.53,2.54-.35.35-.72.36-1.06,0-2.09-2.09-4.18-4.17-6.26-6.26-.33-.33-.36-.7-.05-1.01.93-.94,1.84-1.89,2.81-2.79,1.79-1.65,4.44-1.76,6.4-.31.04.03.09.06.21.17.04-.08.07-.17.13-.23.95-.96,1.91-1.91,2.86-2.87.21-.21.44-.35.75-.25.44.14.61.65.33,1.02-.06.08-.13.15-.21.22-.99.99-1.98,1.98-2.99,2.98ZM17.21,12.18c.77-.75,1.56-1.49,2.3-2.26.74-.77,1.03-1.73.95-2.8-.08-1.08-.62-1.92-1.41-2.63-1.39-1.26-3.55-1.29-4.93-.02-.8.73-1.54,1.52-2.31,2.29,0,0,0,.03,0,.02,1.81,1.81,3.62,3.62,5.41,5.41Z"/>
      <path class="cls-1" d="M10.47,16.97c-.06.29-.17.48-.39.61-.23.13-.46.11-.69-.03-.05-.03-.1-.08-.14-.12-.89-.89-1.78-1.78-2.67-2.67-.17-.17-.27-.37-.23-.61.04-.26.19-.45.44-.53.25-.08.48-.03.67.15.22.21.43.43.65.64.69.68,1.38,1.36,2.05,2.06.13.14.21.33.31.5Z"/>
      <path class="cls-1" d="M14.34,6.23c.15.08.33.14.45.26.91.9,1.82,1.8,2.72,2.71.29.29.29.7.02.96-.27.27-.66.26-.96-.03-.91-.9-1.81-1.81-2.71-2.71-.21-.21-.27-.47-.15-.75.1-.24.35-.39.64-.43Z"/>
    </g>
  </g>
</svg>