<?xml version="1.0" encoding="UTF-8"?>
<svg id="Capa_2" xmlns="http://www.w3.org/2000/svg" viewBox="0 0 28.63 40.29">
  <defs>
    <style>
      .cls-1 {
        fill: #fff;
      }
    </style>
  </defs>
  <g id="Capa_1-2" data-name="Capa_1">
    <g>
      <path class="cls-1" d="M9.7,32.17c-.6-.07-1.16-.11-1.72-.2C3.78,31.27.43,27.64.05,23.41c-.03-.33-.05-.66-.05-.99C0,17.25,0,12.09,0,6.93,0,6.83,0,6.73,0,6.6h4.13c0-.12.02-.22.02-.32,0-1.67,0-3.34,0-5.02,0-.71.38-1.18,1-1.26.6-.07,1.15.35,1.23.96.02.13.02.25.02.38,0,1.67,0,3.34,0,5.02,0,.07,0,.13.01.21h10.57c0-.13,0-.25,0-.36,0-1.66,0-3.31,0-4.97,0-.9.74-1.47,1.52-1.17.41.15.65.45.71.89.02.12.02.24.02.36,0,1.66,0,3.33,0,4.99,0,.08,0,.17.01.27h4.12v11.22c-.18-.05-.36-.09-.53-.14-5.59-1.46-11.26,2.3-12.06,8.02-.44,3.19.51,5.95,2.75,8.26.12.13.17.25.17.43,0,1.88,0,3.75,0,5.63,0,.24-.07.3-.3.3-1.15-.01-2.29,0-3.44,0-.07,0-.15,0-.26-.01v-8.11Z"/>
      <path class="cls-1" d="M20.41,18.84c4.56,0,8.23,3.7,8.23,8.29,0,4.52-3.7,8.2-8.26,8.2-4.54,0-8.23-3.71-8.21-8.27.01-4.54,3.7-8.21,8.25-8.21ZM21.43,27.12c.11-.12.17-.18.23-.25.71-.71,1.42-1.41,2.12-2.13.34-.35.36-.81.05-1.11-.32-.31-.76-.28-1.11.06-.72.72-1.44,1.44-2.16,2.16-.05.05-.11.1-.17.15-.07-.07-.14-.13-.2-.19-.7-.7-1.39-1.39-2.09-2.09-.39-.39-.81-.42-1.14-.1-.33.32-.29.77.1,1.16.37.37.74.75,1.12,1.12.39.38.77.76,1.24,1.21-.13.08-.23.12-.3.19-.7.69-1.39,1.39-2.09,2.08-.29.28-.36.62-.21.92.24.48.82.57,1.22.18.73-.71,1.44-1.44,2.16-2.16.06-.06.13-.12.2-.19.07.06.12.11.16.15.73.73,1.45,1.45,2.18,2.18.2.2.43.3.71.25.28-.06.47-.22.56-.5.1-.29.02-.55-.19-.77-.51-.51-1.02-1.02-1.53-1.53-.28-.27-.57-.53-.86-.81Z"/>
    </g>
  </g>
</svg>