<?xml version="1.0" encoding="UTF-8"?>
<svg id="Capa_2" xmlns="http://www.w3.org/2000/svg" viewBox="0 0 37.45 42.96">
  <defs>
    <style>
      .cls-1 {
        fill: #fff;
      }
    </style>
  </defs>
  <g id="Capa_1-2" data-name="Capa_1">
    <path class="cls-1" d="M25.07,10.58c.17-.05.32-.1.47-.14,1.15-.35,2.29-.72,3.44-1.06.83-.25,1.54-.02,2.11.62,1.14,1.28,2.28,2.56,3.42,3.84.64.72,1.28,1.44,1.92,2.15.69.77,1.02,1.68,1.01,2.71-.01,1.96,0,3.92,0,5.88,0,1.55.01,3.11,0,4.66-.01,1.6-1.08,3.03-2.6,3.52-.53.17-1.06.33-1.59.49-.04.01-.08.03-.14.05.05.06.1.1.14.15.98,1,1.96,1.99,2.93,2.99.38.39.25.93-.27,1.1-5.55,1.79-11.09,3.58-16.64,5.37-.34.11-.57.04-.8-.24-1.01-1.26-2.02-2.52-3.02-3.78-.07-.09-.13-.1-.24-.07-.69.2-1.37.46-2.08.58-3.24.56-6-.38-8.23-2.79-1.48-1.61-2.92-3.27-4.38-4.9C.17,31.29,0,30.82,0,30.27c0-2.27,0-4.53,0-6.8,0-1.25,0-2.5,0-3.75,0-.85.59-1.59,1.4-1.84,1.92-.59,3.84-1.18,5.76-1.77.03,0,.05-.02.09-.03-.06-.2-.12-.39-.18-.58-.97-3.06-1.94-6.12-2.91-9.18-.06-.19-.06-.36.01-.54.22-.57.44-1.14.65-1.72.09-.25.26-.39.52-.45,3.36-.77,6.73-1.54,10.09-2.31,1.83-.42,3.67-.84,5.5-1.26.44-.1.72.06.86.48,1.07,3.3,2.15,6.61,3.22,9.91.01.04.03.09.05.15ZM27.09,11.28c.05.07.09.12.13.16.49.61.99,1.21,1.48,1.82.27.33.42.71.43,1.14.03.86-.51,1.62-1.33,1.88-.65.21-1.3.4-1.95.6-4.85,1.5-9.69,2.99-14.54,4.49-1.59.49-3.27-.01-4.33-1.3-.36-.44-.72-.89-1.08-1.33-.18-.22-.29-.46-.34-.74,0-.02-.01-.05-.02-.07-.02,0-.03,0-.04,0-1.25.39-2.51.77-3.76,1.16-.5.16-.64.74-.28,1.14,1.47,1.66,2.95,3.31,4.43,4.96,1.96,2.18,5.01,3.03,7.81,2.16,6.89-2.13,13.78-4.25,20.67-6.38,1.78-.55,2.4-2.71,1.16-4.11-1.8-2.03-3.61-4.05-5.42-6.08-.21-.23-.46-.31-.76-.22-.38.11-.75.23-1.13.35-.37.11-.74.23-1.13.35ZM12.07,19.63c.06-.01.1-.02.15-.03,1.33-.36,2.67-.69,3.99-1.08,2.94-.86,5.84-1.85,8.75-2.83.13-.04.26-.09.4-.14-.02-.05-.03-.09-.04-.13-1.51-4.64-3.02-9.28-4.52-13.92-.04-.11-.08-.13-.19-.11-4.4,1.01-8.81,2.02-13.21,3.02-.04,0-.08.02-.13.04,1.61,5.06,3.21,10.11,4.81,15.17ZM36.18,21.41c-.05.04-.08.06-.1.08-.39.33-.84.56-1.33.71-.74.23-1.49.46-2.23.69-6.01,1.86-12.03,3.71-18.04,5.57-1.16.36-2.34.58-3.56.48-2.33-.18-4.31-1.1-5.89-2.82-1.23-1.34-2.43-2.71-3.64-4.07-.03-.03-.06-.06-.11-.12,0,.09,0,.13,0,.18,0,2.71,0,5.42,0,8.13,0,.26.07.47.25.66,1.46,1.63,2.91,3.27,4.37,4.9.8.9,1.76,1.56,2.89,1.99,1.68.64,3.37.68,5.08.13.1-.03.13-.07.13-.17,0-1.66,0-3.32,0-4.99,0-.41.14-.6.54-.72,3.21-.97,6.42-1.94,9.63-2.91,2.94-.89,5.88-1.78,8.83-2.66.1-.03.22-.05.33-.04.34.04.55.3.55.67,0,1.49,0,2.98,0,4.48v.16c.18-.05.33-.1.49-.15,1.14-.35,1.84-1.3,1.84-2.49,0-2.42,0-4.83,0-7.25,0-.14,0-.28,0-.45ZM32.58,27.92c-.06.02-.1.03-.14.04-5.69,1.72-11.38,3.43-17.07,5.15-.11.03-.14.08-.14.19,0,1.35,0,2.71,0,4.06,0,.04,0,.08,0,.14.06-.02.1-.03.14-.04,4.78-1.47,9.55-2.95,14.33-4.42.92-.28,1.84-.57,2.77-.85.06-.02.11-.02.11-.11,0-1.33,0-2.67,0-4,0-.04,0-.08,0-.14ZM34.6,36.64s-.04-.06-.06-.08c-.89-.91-1.79-1.82-2.68-2.73-.08-.08-.15-.1-.26-.06-4.93,1.53-9.87,3.05-14.8,4.57-.04.01-.07.03-.12.04.02.03.03.05.04.06.82,1.03,1.64,2.05,2.46,3.08.05.07.1.06.17.04,1-.33,2.01-.65,3.01-.97,3.78-1.22,7.55-2.44,11.33-3.66.3-.1.6-.19.91-.29ZM6.02,4.75c-.1-.02-.12.04-.15.11-.13.36-.27.71-.41,1.07-.04.1-.04.19,0,.29,1.42,4.48,2.84,8.96,4.27,13.44.03.11.05.26.12.31.08.05.22,0,.34,0,.21-.02.41-.05.63-.08-1.6-5.06-3.2-10.09-4.8-15.13ZM25.46,11.8c.38,1.18.77,2.35,1.15,3.53.28-.09.54-.16.8-.25.47-.15.61-.65.3-1.04-.16-.2-.32-.39-.48-.59-.42-.52-.85-1.04-1.27-1.56-.1-.12-.21-.17-.36-.12-.04.01-.08.02-.14.03ZM7.64,17.27c-.22.08-.41.16-.61.24-.24.1-.29.27-.13.47.36.44.71.88,1.07,1.32.12.14.25.27.37.41.01-.01.03-.02.04-.03-.25-.79-.5-1.58-.76-2.39Z"/>
  </g>
</svg>