<?xml version="1.0" encoding="UTF-8"?>
<svg id="Capa_2" xmlns="http://www.w3.org/2000/svg" viewBox="0 0 21.82 21.82">
  <defs>
    <style>
      .cls-1 {
        fill: #fdfefd;
      }

      .cls-2 {
        fill: #fefefe;
      }
    </style>
  </defs>
  <g id="Capa_1-2" data-name="Capa_1">
    <g>
      <path class="cls-1" d="M11.02,0C5-.04.04,4.81,0,10.8c-.04,6.02,4.81,10.98,10.79,11.02,6.02.04,10.98-4.81,11.02-10.8C21.86,5,17.01.04,11.02,0ZM10.75,20.13c-5.05-.11-9.14-4.34-9.06-9.34C1.78,5.75,5.98,1.64,10.98,1.69c5.04.06,9.17,4.24,9.14,9.26-.03,5.09-4.32,9.3-9.37,9.18Z"/>
      <path class="cls-2" d="M12.19,13.57c0,.8-.1,1.62.02,2.4.23,1.49-.41,1.81-1.76,1.72-.88-.06-1.2-.25-1.17-1.17.06-2.03.09-4.07,0-6.09-.06-1.17.55-1.19,1.36-1.12.72.06,1.7-.36,1.57,1.06-.09,1.06-.02,2.14-.02,3.21Z"/>
      <path class="cls-2" d="M9.34,6.06c-.31-1.27.2-1.56,1.47-1.63,1.59-.08,1.33.79,1.41,1.77.08,1.15-.2,1.54-1.46,1.56-1.4.02-1.67-.52-1.42-1.7Z"/>
    </g>
  </g>
</svg>