<?xml version="1.0" encoding="UTF-8"?>
<svg id="Capa_2" xmlns="http://www.w3.org/2000/svg" viewBox="0 0 36.42 32.79">
  <defs>
    <style>
      .cls-1 {
        fill: #fff;
      }
    </style>
  </defs>
  <g id="Capa_1-2" data-name="Capa_1">
    <g>
      <path class="cls-1" d="M4.16,23.07c-.38-.04-.75-.04-1.09-.11C1.25,22.59,0,21.03,0,19.14c0-3.59,0-7.18,0-10.77,0-1.49,0-2.98,0-4.48C0,2.28.92.9,2.37.29,2.86.09,3.37,0,3.9,0c7.54,0,15.08,0,22.61,0,2.15,0,3.86,1.7,3.86,3.85,0,5.11,0,10.22,0,15.32,0,2.17-1.7,3.87-3.86,3.87-4.1,0-8.19,0-12.29,0-.1,0-.21.04-.29.09-2.67,1.89-5.33,3.79-8,5.7-.41.29-.83.38-1.28.12-.3-.17-.45-.45-.5-.79-.01-.09-.01-.19-.01-.28,0-1.55,0-3.11,0-4.66,0-.05,0-.1,0-.14ZM6.26,26.02c.18-.13.32-.23.47-.33,2.1-1.49,4.2-2.99,6.29-4.49.25-.18.52-.26.82-.26,4.2,0,8.4,0,12.6,0,.28,0,.55-.03.8-.16.67-.33,1.02-.88,1.02-1.63,0-5.08,0-10.16,0-15.24,0-1.05-.75-1.8-1.8-1.8-7.51,0-15.02,0-22.53,0-1.08,0-1.82.74-1.82,1.81,0,5.08,0,10.15,0,15.23,0,1.04.75,1.78,1.78,1.79.42,0,.84,0,1.26,0,.67,0,1.1.45,1.1,1.12,0,1.19,0,2.38,0,3.57v.39Z"/>
      <path class="cls-1" d="M30.16,29.68c0-.07,0-.12,0-.17,0-1.27,0-2.53,0-3.8,0-.64.45-1.09,1.09-1.09.44,0,.88,0,1.31,0,.97,0,1.74-.76,1.74-1.73,0-5.12,0-10.24,0-15.36,0-.97-.72-1.7-1.7-1.74-.82-.04-1.31-.82-.95-1.53.2-.39.53-.57.96-.57,1.51,0,2.91.94,3.49,2.33.21.49.31,1.01.31,1.54,0,5.1,0,10.21,0,15.31,0,1.99-1.43,3.6-3.4,3.84-.24.03-.48.02-.75.04v.16c0,1.52,0,3.04,0,4.55,0,.17,0,.34-.03.5-.16.74-1,1.08-1.62.64-1.02-.72-2.04-1.45-3.05-2.17-1.7-1.21-3.41-2.43-5.11-3.64-.06-.04-.16-.06-.24-.06-2.67,0-5.35,0-8.02,0-.57,0-1-.34-1.09-.88-.11-.61.35-1.19.96-1.23.07,0,.15,0,.22,0,2.76,0,5.52,0,8.29,0,.32,0,.59.09.85.28,1.9,1.36,3.81,2.72,5.71,4.08.31.22.62.44.93.66.02.02.05.03.1.06Z"/>
      <path class="cls-1" d="M17.03,11.27c0,1.01-.84,1.84-1.85,1.83-1.01,0-1.84-.84-1.84-1.85,0-1.02.84-1.85,1.86-1.84,1.01,0,1.83.84,1.83,1.86Z"/>
      <path class="cls-1" d="M20.45,11.24c.01-1.02.85-1.84,1.85-1.83,1.04.01,1.84.85,1.83,1.9-.01.98-.87,1.8-1.86,1.79-1.02-.02-1.83-.85-1.82-1.86Z"/>
      <path class="cls-1" d="M9.93,11.26c0,1.02-.83,1.84-1.84,1.84-1.02,0-1.84-.83-1.84-1.86,0-1.01.83-1.83,1.83-1.83,1.02,0,1.85.83,1.85,1.85Z"/>
    </g>
  </g>
</svg>