<?xml version="1.0" encoding="UTF-8"?>
<svg id="Capa_2" xmlns="http://www.w3.org/2000/svg" viewBox="0 0 87.93 80.5">
  <defs>
    <style>
      .cls-1 {
        fill: #bcbcbc;
      }
    </style>
  </defs>
  <g id="Capa_1-2" data-name="Capa_1">
    <g>
      <path class="cls-1" d="M56.92,80.43c-.26.02-.52.07-.77.07-16.39,0-32.77-.01-49.16,0-2.46,0-4.48-.8-5.89-2.86C.35,76.56,0,75.36,0,74.04c0-18.67,0-37.34,0-56.01,0-3.33,2.26-5.95,5.59-6.38,1.02-.13,1.15-.51,1.14-1.39-.02-1.73-.18-3.46.1-5.18C7.29,2.32,9.53.26,12.34.1c1.5-.09,3.01-.04,4.51-.04,7.62,0,15.24.09,22.86-.06,2.67-.05,4.73.81,6.52,2.65,1.73,1.78,3.48,3.53,5.23,5.29.59.59,1.35.71,2.13.76.65.04,1.31.04,1.96.05,0,1.02,0,2.03,0,3.05-2.84.37-5.25-.35-7.21-2.58-1.5-1.71-3.24-3.21-4.83-4.85-.81-.83-1.72-1.18-2.88-1.18-9.15.02-18.31,0-27.46,0-2.19,0-3.3,1.12-3.32,3.32-.01,1.34.05,2.68-.02,4.01-.05.86.27,1.01,1.06,1.01,8.63-.03,17.26-.01,25.89-.03,2.07,0,3.81.67,5.27,2.16,2.01,2.05,4.08,4.05,6.1,6.09.78.79,1.68,1.17,2.8,1.16,1.86-.02,3.72.03,5.58.05,0,1.01,0,2.03,0,3.04-1.86.02-3.72.01-5.59.06-1.98.05-3.62-.66-5-2.06-1.95-1.98-3.96-3.9-5.88-5.9-.98-1.02-2.08-1.45-3.48-1.45-9.84.03-19.68,0-29.52,0-2.73,0-3.92,1.21-3.92,3.95,0,18.21,0,36.42,0,54.62,0,2.97,1.11,4.09,4.07,4.09,16.15,0,32.3,0,48.45,0,.42,0,.85.04,1.27.06,0,1.01,0,2.03,0,3.04Z"/>
      <path class="cls-1" d="M55.55,11.81c0-1.02,0-2.03,0-3.05,7.75-.01,15.5-.03,23.25-.04.98,0,1.96-.01,2.94,0,3.65.05,6.18,2.61,6.18,6.29.01,6.98,0,13.97,0,20.95,0,12.63,0,25.26,0,37.89,0,3.26-1.96,5.78-5.03,6.48-.5.12-1.04.14-1.56.14-8.01,0-16.02,0-24.03,0-.13,0-.26-.02-.39-.03,0-1.01,0-2.03,0-3.04.39-.01.78-.04,1.17-.04,7.62,0,15.23,0,22.85-.01,2.63,0,3.84-1.22,3.84-3.82,0-15.27,0-30.53,0-45.8,0-2.31-1.32-3.65-3.64-3.66-5.52-.02-11.05,0-16.57-.01-2.68,0-5.36-.02-8.04-.04,0-1.01,0-2.03,0-3.04.39-.01.78-.04,1.17-.04,7.03,0,14.06,0,21.09,0,2.01,0,4.06-.21,5.98.93,0-2.5.03-4.85-.01-7.2-.03-1.58-1.24-2.76-2.83-2.8-1.57-.04-3.14-.01-4.71-.02-7.23-.01-14.45-.03-21.68-.04Z"/>
      <path class="cls-1" d="M43.83,69.67c-10.22-.06-18.35-8.42-18.27-18.79.08-9.76,8.41-17.96,18.22-17.86,10.13.1,18.67,7.88,18.6,18.31-.07,10.19-8.39,18.4-18.54,18.34ZM59.18,51.52c-.09-8.74-6.79-15.38-15.39-15.41-8.55-.02-15.1,7.17-15.06,15.63.04,8.14,7.02,14.92,15.5,14.79,8.2-.12,15.04-6.94,14.96-15.01Z"/>
      <path class="cls-1" d="M45.53,47.49c0,1.86,0,3.71,0,5.57,0,1.2-.63,1.93-1.61,1.9-.95-.02-1.53-.72-1.53-1.88,0-3.75,0-7.49,0-11.24,0-1.14.62-1.85,1.56-1.86.94,0,1.57.71,1.58,1.84.01,1.89,0,3.78,0,5.67Z"/>
      <path class="cls-1" d="M43.91,61.07c-1.1-.02-1.95-.93-1.91-2.05.04-1.06.91-1.91,1.97-1.91,1.1,0,1.97.9,1.96,2.01-.01,1.12-.9,1.97-2.02,1.95Z"/>
    </g>
  </g>
</svg>