<?xml version="1.0" encoding="UTF-8"?>
<svg id="Capa_2" xmlns="http://www.w3.org/2000/svg" viewBox="0 0 52.68 39.51">
  <defs>
    <style>
      .cls-1 {
        fill: #f2f2f2;
      }
    </style>
  </defs>
  <g id="Capa_1-2" data-name="Capa_1">
    <g>
      <path class="cls-1" d="M0,.1C.15.07.31,0,.46,0,7.92,0,15.38,0,22.84,0c.09.12.17.25.27.36,3.22,3.23,6.43,6.46,9.65,9.69.43.43.89.85,1.43,1.36-.83.79-1.59,1.52-2.44,2.32.23.19.43.33.6.49,1.22,1.21,2.44,2.41,3.63,3.64.17.17.3.46.3.7.02,2.78.01,5.55.01,8.33,0,.12-.03.24-.06.52-3.08-3.1-6.06-6.09-9-9.04-.78.79-1.54,1.57-2.41,2.46,2.94,2.92,5.93,5.9,8.95,8.91h-.57c-2.26,0-4.53-.08-6.79.03-1.26.06-2.15-.28-2.98-1.24-1-1.15-2.15-2.16-3.21-3.21-.76.75-1.52,1.5-2.3,2.28.13.14.25.27.38.41,1.54,1.54,3.09,3.07,4.61,4.62.29.3.58.41.99.41,7.23-.01,14.47,0,21.7-.01.37,0,.64.1.9.37,1.39,1.4,2.78,2.79,4.19,4.17.64.63,1.31,1.23,1.97,1.84-.15.03-.31.1-.46.1-8.75,0-17.5,0-26.25,0h-5.39c-.13-.14-.25-.28-.38-.42-2.18-2.18-4.36-4.36-6.55-6.54-.13-.13-.25-.26-.46-.49,1.57-1.52,3.1-3.01,4.74-4.6-.21-.15-.39-.24-.52-.37-3.52-3.51-7.04-7.02-10.54-10.54-.17-.17-.32-.46-.33-.7-.03-1.85,0-3.7-.02-5.55,0-.4.13-.49.51-.48,1.85.02,3.7,0,5.55,0,.15,0,.3.02.48.04,0,1.12-.02,2.2.01,3.28,0,.23.12.5.28.66,1.18,1.21,2.4,2.4,3.59,3.61.29.29.54.61.75.86,2.41-2.4,4.73-4.72,7.07-7.05-1.43-1.43-2.9-2.89-4.36-4.36-.25-.25-.51-.35-.86-.35-4.11.01-8.23,0-12.34.02-.46,0-.8-.12-1.13-.45C4.2,4.18,2.31,2.31.43.43c-.13-.13-.29-.22-.43-.33Z"/>
      <path class="cls-1" d="M39.61,29.69c0-.25,0-.46,0-.66,0-3.91,0-7.82,0-11.72,0-.39-.12-.67-.4-.94-1.53-1.5-3.04-3.02-4.56-4.53-.16-.15-.34-.28-.49-.4,1.59-1.59,3.1-3.09,4.65-4.64.08.07.2.18.32.3,2.22,2.22,4.44,4.43,6.65,6.66.16.16.31.43.31.65.02,4.99.01,9.98.01,14.96,0,.1-.02.2-.03.33h-6.48Z"/>
    </g>
  </g>
</svg>